<svg width="20" height="20" viewBox="0 0 20 20" fill="none" xmlns="http://www.w3.org/2000/svg">
<path d="M2.5 7.57987L17.5 3.41321V13.4132L2.5 10.0799V7.57987Z" stroke="white" stroke-width="1.66667" stroke-linecap="round" stroke-linejoin="round"/>
<path d="M12.4617 14.7465C12.3741 15.0639 12.2249 15.3609 12.0226 15.6206C11.8203 15.8803 11.5688 16.0976 11.2825 16.2601C10.9961 16.4226 10.6806 16.5271 10.3539 16.5677C10.0272 16.6083 9.69572 16.5841 9.37835 16.4965C9.06099 16.409 8.76398 16.2598 8.50428 16.0575C8.24458 15.8551 8.02728 15.6036 7.86478 15.3173C7.70227 15.031 7.59775 14.7155 7.55719 14.3888C7.51662 14.0621 7.54081 13.7306 7.62835 13.4132" stroke="white" stroke-width="1.66667" stroke-linecap="round" stroke-linejoin="round"/>
</svg>
