<svg width="154" height="32" viewBox="0 0 154 32" fill="none" xmlns="http://www.w3.org/2000/svg">
<path d="M18.4303 18.4324L16.8926 22.6586C16.8273 22.7842 16.8273 22.9149 16.8926 23.0405L19.5811 30.337L22.6514 28.543L18.9378 18.4324C18.8775 18.1762 18.5559 18.1762 18.4303 18.4324Z" fill="white"/>
<path d="M21.4996 11.2664C21.4343 11.0101 21.1177 11.0101 20.9871 11.2664L19.4494 15.4926C19.3841 15.6182 19.3841 15.7488 19.4494 15.8745L23.8011 27.8443L26.8715 26.0503L21.4996 11.2664Z" fill="white"/>
<path fill-rule="evenodd" clip-rule="evenodd" d="M16.19 2.05025C16.1246 1.98492 16.0643 1.98492 15.999 1.98492C15.9337 1.98492 15.8683 1.98492 15.808 2.05025L4.03417 8.83417C3.90855 8.89447 3.84322 9.09045 3.84322 9.21608V22.7839C3.84322 22.9749 3.90855 23.1005 4.03417 23.1658L8.69641 25.8521L7.97228 27.7542L3.00905 24.8945C2.2402 24.4472 1.79297 23.6181 1.79297 22.7839V9.21608C1.79297 8.32161 2.2402 7.55276 3.00905 7.10553L14.7829 0.321608C15.1648 0.125628 15.5518 0 15.999 0H16.0593C16.5065 0 16.8935 0.130653 17.2754 0.321608L28.9889 7.10553C29.7578 7.55276 30.205 8.38191 30.205 9.21608V22.7839C30.205 23.6784 29.7578 24.4472 28.9889 24.8945L17.2151 31.6784C16.8332 31.8744 16.4462 32 15.999 32C15.5518 32 15.1648 31.8693 14.7829 31.6784L9.53574 28.655L11.0976 27.2357L15.808 29.9497C15.8734 30.0151 15.9337 30.0151 15.999 30.0151C16.0643 30.0151 16.1246 30.0151 16.19 29.9497L27.9638 23.1658C28.0895 23.1055 28.1548 22.9095 28.1548 22.7839V9.21608C28.1548 9.02512 28.0895 8.8995 27.9638 8.83417L16.19 2.05025Z" fill="white"/>
<path d="M15.0389 8.25488H12.0288C11.8379 8.25488 11.5816 8.38051 11.5162 8.57649L5.11926 26.1092L8.18961 27.9031L15.2298 8.63679C15.2951 8.44584 15.1645 8.25488 14.9735 8.25488H15.0389Z" fill="white"/>
<path d="M20.2203 8.25561H17.2103C17.0193 8.25561 16.763 8.38124 16.6977 8.57722L9.40625 28.542L12.4766 30.336L20.4113 8.57722C20.4766 8.38627 20.3459 8.19531 20.155 8.19531L20.2203 8.25561Z" fill="white"/>
<path d="M48.256 21.224C47.4533 21.224 46.7673 21.0187 46.198 20.608C45.6287 20.188 45.1947 19.5907 44.896 18.816C44.5973 18.0413 44.448 17.1173 44.448 16.044C44.448 14.9707 44.5973 14.0467 44.896 13.272C45.1947 12.488 45.6287 11.886 46.198 11.466C46.7673 11.046 47.4533 10.836 48.256 10.836C49.2267 10.836 50.0247 11.158 50.65 11.802C51.2753 12.4367 51.6767 13.342 51.854 14.518L49.81 14.616C49.7073 13.9627 49.5207 13.4633 49.25 13.118C48.9793 12.7727 48.648 12.6 48.256 12.6C47.8827 12.6 47.5653 12.7353 47.304 13.006C47.0427 13.2673 46.842 13.6547 46.702 14.168C46.562 14.6813 46.492 15.3067 46.492 16.044C46.492 16.772 46.562 17.3927 46.702 17.906C46.842 18.41 47.0427 18.7973 47.304 19.068C47.5653 19.3293 47.8827 19.46 48.256 19.46C48.6573 19.46 48.998 19.278 49.278 18.914C49.5673 18.5407 49.7587 18.004 49.852 17.304L51.882 17.402C51.7233 18.6153 51.3267 19.558 50.692 20.23C50.0667 20.8927 49.2547 21.224 48.256 21.224ZM52.6605 21L55.3765 11.06H57.8125L60.5285 21H58.5265L56.5945 13.468L54.6625 21H52.6605ZM54.4945 18.886L54.9985 17.15H58.1905L58.6945 18.886H54.4945ZM65.0451 21.224C64.2424 21.224 63.5564 21.0187 62.9871 20.608C62.4177 20.188 61.9837 19.5907 61.6851 18.816C61.3864 18.0413 61.2371 17.1173 61.2371 16.044C61.2371 14.9707 61.3864 14.0467 61.6851 13.272C61.9837 12.488 62.4177 11.886 62.9871 11.466C63.5564 11.046 64.2424 10.836 65.0451 10.836C66.0157 10.836 66.8137 11.158 67.4391 11.802C68.0644 12.4367 68.4657 13.342 68.6431 14.518L66.5991 14.616C66.4964 13.9627 66.3097 13.4633 66.0391 13.118C65.7684 12.7727 65.4371 12.6 65.0451 12.6C64.6717 12.6 64.3544 12.7353 64.0931 13.006C63.8317 13.2673 63.6311 13.6547 63.4911 14.168C63.3511 14.6813 63.2811 15.3067 63.2811 16.044C63.2811 16.772 63.3511 17.3927 63.4911 17.906C63.6311 18.41 63.8317 18.7973 64.0931 19.068C64.3544 19.3293 64.6717 19.46 65.0451 19.46C65.4464 19.46 65.7871 19.278 66.0671 18.914C66.3564 18.5407 66.5477 18.004 66.6411 17.304L68.6711 17.402C68.5124 18.6153 68.1157 19.558 67.4811 20.23C66.8557 20.8927 66.0437 21.224 65.0451 21.224ZM69.8556 21V11.06H71.8436V15.778L71.1016 15.106H75.6656L74.9236 15.778V11.06H76.9116V21H74.9236V16.226L75.6656 16.898H71.1016L71.8436 16.226V21H69.8556ZM78.7541 21V11.06H84.9701V12.852H80.7421V15.134H84.8021V16.898H80.7421V19.208H85.0821V21H78.7541ZM97.9652 19.628L96.5652 13.692L96.8032 13.636V21H94.9832V11.06H97.2232L98.8332 17.36H98.3012L99.9112 11.06H102.151V21H100.331V13.636L100.569 13.692L99.1692 19.628H97.9652ZM103.028 21L105.744 11.06H108.18L110.896 21H108.894L106.962 13.468L105.03 21H103.028ZM104.862 18.886L105.366 17.15H108.558L109.062 18.886H104.862ZM112.052 21V11.06H113.998L116.756 17.486V11.06H118.66V21H116.714L113.956 14.574V21H112.052ZM119.817 21L122.533 11.06H124.969L127.685 21H125.683L123.751 13.468L121.819 21H119.817ZM121.651 18.886L122.155 17.15H125.347L125.851 18.886H121.651ZM132.173 21.224C131.417 21.224 130.755 21.0233 130.185 20.622C129.625 20.2113 129.187 19.6233 128.869 18.858C128.552 18.0833 128.393 17.1453 128.393 16.044C128.393 14.9707 128.543 14.0467 128.841 13.272C129.149 12.488 129.583 11.886 130.143 11.466C130.713 11.046 131.394 10.836 132.187 10.836C132.85 10.836 133.424 10.9713 133.909 11.242C134.395 11.5127 134.796 11.9093 135.113 12.432C135.44 12.9453 135.673 13.58 135.813 14.336L133.783 14.448C133.681 13.8507 133.494 13.398 133.223 13.09C132.962 12.782 132.621 12.628 132.201 12.628C131.828 12.628 131.511 12.7587 131.249 13.02C130.988 13.2813 130.787 13.6687 130.647 14.182C130.507 14.686 130.437 15.3067 130.437 16.044C130.437 16.772 130.512 17.388 130.661 17.892C130.811 18.396 131.025 18.7787 131.305 19.04C131.585 19.3013 131.926 19.432 132.327 19.432C132.663 19.432 132.948 19.3527 133.181 19.194C133.415 19.026 133.597 18.7927 133.727 18.494C133.858 18.186 133.928 17.8173 133.937 17.388H132.173V15.834H135.785V21H134.455L134.371 18.844L134.805 18.606C134.759 19.082 134.623 19.5207 134.399 19.922C134.185 20.314 133.891 20.6313 133.517 20.874C133.144 21.1073 132.696 21.224 132.173 21.224ZM137.516 21V11.06H143.732V12.852H139.504V15.134H143.564V16.898H139.504V19.208H143.844V21H137.516ZM145.602 21V11.06H148.808C149.882 11.06 150.717 11.3307 151.314 11.872C151.921 12.404 152.224 13.1273 152.224 14.042C152.224 14.5367 152.122 14.966 151.916 15.33C151.711 15.694 151.431 15.9787 151.076 16.184C150.722 16.3893 150.334 16.5107 149.914 16.548L149.858 16.366C150.596 16.3753 151.146 16.5293 151.51 16.828C151.874 17.1173 152.084 17.584 152.14 18.228L152.378 21H150.362L150.194 18.76C150.166 18.3867 150.101 18.102 149.998 17.906C149.896 17.71 149.737 17.5747 149.522 17.5C149.308 17.4253 149.023 17.388 148.668 17.388H147.59V21H145.602ZM147.59 15.596H148.738C149.205 15.596 149.56 15.4747 149.802 15.232C150.054 14.9893 150.18 14.6533 150.18 14.224C150.18 13.7853 150.054 13.4493 149.802 13.216C149.56 12.9733 149.205 12.852 148.738 12.852H147.59V15.596Z" fill="white"/>
</svg>
