<?xml version="1.0" encoding="UTF-8"?>
<svg id="Capa_1" data-name="Capa 1" xmlns="http://www.w3.org/2000/svg" viewBox="0 0 179.76 32">
  <defs>
    <style>
      .cls-1, .cls-2 {
        fill: #fff;
      }

      .cls-2 {
        fill-rule: evenodd;
      }
    </style>
  </defs>
  <g>
    <path class="cls-1" d="M16.1,18.12l-1.34,3.69c-.06.11-.06.22,0,.33l2.34,6.36,2.68-1.56-3.24-8.82c-.05-.22-.33-.22-.44,0Z"/>
    <path class="cls-1" d="M18.78,11.87c-.06-.22-.33-.22-.45,0l-1.34,3.69c-.06.11-.06.22,0,.33l3.79,10.44,2.68-1.56-4.68-12.89Z"/>
    <path class="cls-2" d="M14.15,3.84c-.06-.06-.11-.06-.17-.06s-.11,0-.17.06L3.55,9.75c-.11.05-.17.22-.17.33v11.83c0,.17.06.28.17.33l4.07,2.34-.63,1.66-4.33-2.49c-.67-.39-1.06-1.11-1.06-1.84v-11.83c0-.78.39-1.45,1.06-1.84L12.92,2.33c.33-.17.67-.28,1.06-.28h.05c.39,0,.73.11,1.06.28l10.21,5.92c.67.39,1.06,1.11,1.06,1.84v11.83c0,.78-.39,1.45-1.06,1.84l-10.27,5.92c-.33.17-.67.28-1.06.28s-.73-.11-1.06-.28l-4.58-2.64,1.36-1.24,4.11,2.37c.06.06.11.06.17.06s.11,0,.17-.06l10.27-5.92c.11-.05.17-.22.17-.33v-11.83c0-.17-.06-.28-.17-.33L14.15,3.84Z"/>
    <path class="cls-1" d="M13.14,9.25h-2.62c-.17,0-.39.11-.45.28l-5.58,15.29,2.68,1.56,6.14-16.8c.06-.17-.06-.33-.22-.33h.06Z"/>
    <path class="cls-1" d="M17.66,9.25h-2.62c-.17,0-.39.11-.45.28l-6.36,17.41,2.68,1.56,6.92-18.97c.06-.17-.06-.33-.22-.33l.06.05Z"/>
  </g>
  <g>
    <path class="cls-1" d="M37.76,20.48c-.66,0-1.21-.13-1.68-.38-.46-.25-.82-.61-1.07-1.07-.26-.46-.41-1.02-.46-1.66l1.74-.09c.05.36.14.67.28.92.14.25.31.44.52.56.21.12.46.18.75.18.26,0,.48-.04.66-.11.18-.07.32-.18.42-.32.1-.14.15-.31.15-.52,0-.22-.05-.41-.16-.58-.11-.17-.29-.32-.55-.46-.26-.14-.63-.27-1.11-.39-.58-.15-1.05-.32-1.43-.52-.38-.2-.65-.46-.83-.78-.18-.32-.27-.71-.27-1.19,0-.53.12-.99.35-1.38.23-.39.57-.7,1.01-.91.44-.21.98-.32,1.61-.32s1.14.11,1.58.34c.44.23.78.55,1.03.98.25.43.39.95.43,1.57l-1.75.09c-.04-.3-.12-.56-.23-.78-.11-.22-.27-.38-.46-.5-.19-.11-.42-.17-.67-.17-.35,0-.63.09-.83.27-.21.18-.31.42-.31.73,0,.2.05.38.15.52.1.15.28.28.53.39.26.11.61.23,1.05.35.66.15,1.17.36,1.55.61.38.25.65.55.81.89.16.34.24.74.24,1.19,0,.52-.12.97-.36,1.34-.24.38-.59.67-1.05.88-.46.21-1.01.32-1.65.32Z"/>
    <path class="cls-1" d="M43.65,20.28v-7.07h-2.3v-1.55h6.32v1.55h-2.3v7.07h-1.72Z"/>
    <path class="cls-1" d="M50.69,20.28v-3.59l-2.42-5.03h1.87l1.41,3.24,1.41-3.24h1.87l-2.4,5.03v3.59h-1.74Z"/>
    <path class="cls-1" d="M55.75,20.28v-8.62h1.72v8.13l-1.26-1.06h5.03v1.55h-5.49Z"/>
    <path class="cls-1" d="M64.95,20.48c-.95,0-1.68-.27-2.2-.82-.52-.55-.78-1.33-.78-2.36v-5.65h1.72v5.79c0,.49.11.86.33,1.12.22.26.53.39.94.39s.72-.13.94-.39c.22-.26.33-.63.33-1.12v-5.79h1.72v5.65c0,1.03-.26,1.82-.78,2.36-.52.55-1.26.82-2.2.82Z"/>
    <path class="cls-1" d="M71.95,20.48c-.66,0-1.21-.13-1.68-.38-.46-.25-.82-.61-1.07-1.07-.26-.46-.41-1.02-.46-1.66l1.74-.09c.05.36.14.67.28.92.14.25.31.44.52.56.21.12.46.18.75.18.26,0,.48-.04.66-.11.18-.07.32-.18.42-.32.1-.14.15-.31.15-.52,0-.22-.05-.41-.16-.58-.11-.17-.29-.32-.55-.46-.26-.14-.63-.27-1.11-.39-.58-.15-1.05-.32-1.43-.52-.38-.2-.65-.46-.83-.78-.18-.32-.27-.71-.27-1.19,0-.53.12-.99.35-1.38.23-.39.57-.7,1.01-.91.44-.21.98-.32,1.61-.32s1.14.11,1.58.34c.44.23.78.55,1.03.98.25.43.39.95.43,1.57l-1.75.09c-.04-.3-.12-.56-.23-.78-.11-.22-.27-.38-.46-.5-.19-.11-.42-.17-.67-.17-.35,0-.63.09-.83.27-.21.18-.31.42-.31.73,0,.2.05.38.15.52.1.15.28.28.53.39.26.11.61.23,1.05.35.66.15,1.17.36,1.55.61.38.25.65.55.81.89.16.34.24.74.24,1.19,0,.52-.12.97-.36,1.34-.24.38-.59.67-1.05.88-.46.21-1.01.32-1.65.32Z"/>
    <path class="cls-1" d="M86.5,20.48c-.7,0-1.29-.18-1.79-.54-.49-.36-.87-.88-1.13-1.55-.26-.67-.39-1.47-.39-2.4s.13-1.73.39-2.41c.26-.68.64-1.2,1.13-1.56.49-.36,1.09-.55,1.79-.55.84,0,1.53.28,2.08.83.54.55.89,1.34,1.04,2.36l-1.77.08c-.09-.57-.25-1-.49-1.3-.23-.3-.52-.45-.86-.45s-.6.12-.83.35c-.23.23-.4.57-.52,1.01-.12.45-.18.99-.18,1.63s.06,1.17.18,1.61c.12.44.3.78.52,1.01.23.23.5.35.83.35.35,0,.65-.16.89-.48.25-.32.41-.78.49-1.39l1.76.08c-.14,1.05-.48,1.87-1.03,2.45-.55.58-1.25.87-2.12.87Z"/>
    <path class="cls-1" d="M90.33,20.28l2.36-8.62h2.11l2.36,8.62h-1.74l-1.68-6.53-1.68,6.53h-1.74ZM91.92,18.45l.44-1.51h2.77l.44,1.51h-3.64Z"/>
    <path class="cls-1" d="M101.08,20.48c-.7,0-1.29-.18-1.79-.54-.49-.36-.87-.88-1.13-1.55-.26-.67-.39-1.47-.39-2.4s.13-1.73.39-2.41c.26-.68.64-1.2,1.13-1.56.49-.36,1.09-.55,1.79-.55.84,0,1.53.28,2.08.83.54.55.89,1.34,1.04,2.36l-1.77.08c-.09-.57-.25-1-.49-1.3-.23-.3-.52-.45-.86-.45s-.6.12-.83.35c-.23.23-.4.57-.52,1.01-.12.45-.18.99-.18,1.63s.06,1.17.18,1.61c.12.44.3.78.52,1.01.23.23.5.35.83.35.35,0,.65-.16.89-.48.25-.32.41-.78.49-1.39l1.76.08c-.14,1.05-.48,1.87-1.03,2.45-.55.58-1.25.87-2.12.87Z"/>
    <path class="cls-1" d="M105.26,20.28v-8.62h1.72v4.09l-.64-.58h3.96l-.64.58v-4.09h1.72v8.62h-1.72v-4.14l.64.58h-3.96l.64-.58v4.14h-1.72Z"/>
    <path class="cls-1" d="M112.98,20.28v-8.62h5.39v1.55h-3.67v1.98h3.52v1.53h-3.52v2h3.77v1.55h-5.49Z"/>
    <path class="cls-1" d="M129.65,19.09l-1.21-5.15.21-.05v6.39h-1.58v-8.62h1.94l1.4,5.47h-.46l1.4-5.47h1.94v8.62h-1.58v-6.39l.21.05-1.21,5.15h-1.04Z"/>
    <path class="cls-1" d="M134.05,20.28l2.36-8.62h2.11l2.36,8.62h-1.74l-1.68-6.53-1.68,6.53h-1.74ZM135.64,18.45l.44-1.51h2.77l.44,1.51h-3.64Z"/>
    <path class="cls-1" d="M141.88,20.28v-8.62h1.69l2.39,5.57v-5.57h1.65v8.62h-1.69l-2.39-5.57v5.57h-1.65Z"/>
    <path class="cls-1" d="M148.63,20.28l2.36-8.62h2.11l2.36,8.62h-1.74l-1.68-6.53-1.68,6.53h-1.74ZM150.22,18.45l.44-1.51h2.77l.44,1.51h-3.64Z"/>
    <path class="cls-1" d="M159.35,20.48c-.66,0-1.23-.18-1.72-.53-.49-.35-.87-.86-1.15-1.53-.28-.67-.41-1.48-.41-2.44s.13-1.73.39-2.41c.26-.68.64-1.2,1.13-1.56.49-.36,1.08-.55,1.77-.55.57,0,1.07.12,1.49.35.42.23.77.58,1.05,1.03.28.45.48,1,.6,1.66l-1.76.1c-.09-.52-.25-.91-.48-1.18-.23-.27-.53-.4-.89-.4-.32,0-.6.11-.83.34-.23.23-.4.56-.52,1-.12.44-.18.98-.18,1.62s.06,1.17.19,1.6c.13.44.32.77.56,1,.24.23.54.34.89.34.29,0,.54-.07.74-.21.2-.14.36-.34.47-.61.11-.26.17-.58.18-.95h-1.53v-1.35h3.13v4.48h-1.15l-.07-1.87.38-.21c-.04.41-.16.79-.35,1.14-.19.34-.45.62-.77.83-.32.21-.71.31-1.17.31Z"/>
    <path class="cls-1" d="M163.99,20.28v-8.62h5.39v1.55h-3.67v1.98h3.52v1.53h-3.52v2h3.77v1.55h-5.49Z"/>
    <path class="cls-1" d="M171.01,20.28v-8.62h2.78c.93,0,1.66.23,2.18.7.52.47.78,1.1.78,1.89,0,.43-.09.8-.27,1.12-.18.32-.42.56-.73.74-.31.18-.64.28-1.01.32l-.05-.16c.64,0,1.12.14,1.43.39.32.26.5.66.55,1.22l.21,2.4h-1.75l-.15-1.94c-.02-.32-.08-.57-.17-.74-.09-.17-.23-.29-.41-.35-.19-.06-.43-.1-.74-.1h-.94v3.13h-1.72ZM172.73,15.59h1c.4,0,.71-.11.93-.32.21-.21.32-.5.32-.87s-.11-.67-.32-.88c-.21-.21-.52-.31-.93-.31h-1v2.38Z"/>
  </g>
</svg>